# xmcd
#
# Track frame offsets: 
#        150
#        26840
#        42798
#        58467
#        74592
#        95495
#        115686
#        132922
#        149985
#        167739
#        184357
#
# Disc length: 2651 seconds
#
# Revision: 0
# Processed by: cddbd v1.5.2PL0 Copyright (c) Steve Scherf et al.
# Submitted via: ExactAudioCopy v1.0b4
#
DISCID=b00a590b
DTITLE=Carl Wyatt  - Doing The Boogaloo
DYEAR=2016
DGENRE=Blues
TTITLE0=Why Do You Treat Me The Way You Do
TTITLE1=You're Just About To Lose Your Clown
TTITLE2=Funny Bone
TTITLE3=My Baby Likes To Boogaloo
TTITLE4=Don't Feel Like Going There Today
TTITLE5=Come Back Baby
TTITLE6=Night Train
TTITLE7=Push And Shove
TTITLE8=You Got To Go
TTITLE9=Cool and Blue
TTITLE10=My Baby Roams The Streets
EXTD=
EXTT0=
EXTT1=
EXTT2=
EXTT3=
EXTT4=
EXTT5=
EXTT6=
EXTT7=
EXTT8=
EXTT9=
EXTT10=
PLAYORDER=
